<?xml version="1.0" encoding="UTF-8" standalone="no"?>
<svg
   width="168.475mm"
   height="209.191mm"
   version="1.1"
   style="shape-rendering:geometricPrecision; text-rendering:geometricPrecision; image-rendering:optimizeQuality; fill-rule:evenodd; clip-rule:evenodd"
   viewBox="0 0 4427 5496.89"
   id="svg86"
   sodipodi:docname="But_I_Sure_Am.svg"
   inkscape:version="1.2.2 (b0a8486541, 2022-12-01)"
   inkscape:export-filename="But_I_Sure_Am.png"
   inkscape:export-xdpi="96"
   inkscape:export-ydpi="96"
   xmlns:inkscape="http://www.inkscape.org/namespaces/inkscape"
   xmlns:sodipodi="http://sodipodi.sourceforge.net/DTD/sodipodi-0.dtd"
   xmlns="http://www.w3.org/2000/svg"
   xmlns:svg="http://www.w3.org/2000/svg">
  <sodipodi:namedview
     id="namedview88"
     pagecolor="#505050"
     bordercolor="#ffffff"
     borderopacity="1"
     inkscape:showpageshadow="0"
     inkscape:pageopacity="0"
     inkscape:pagecheckerboard="1"
     inkscape:deskcolor="#505050"
     inkscape:document-units="mm"
     showgrid="false"
     inkscape:zoom="0.95694787"
     inkscape:cx="269.60716"
     inkscape:cy="367.83613"
     inkscape:window-width="1920"
     inkscape:window-height="1027"
     inkscape:window-x="1352"
     inkscape:window-y="-8"
     inkscape:window-maximized="1"
     inkscape:current-layer="Layer_x0020_1" />
  <defs
     id="defs48">
    <rect
       x="31.03459"
       y="837.93393"
       width="284.95119"
       height="33.697196"
       id="rect4438" />
    <rect
       x="171.90069"
       y="498.45976"
       width="411.72567"
       height="140.55102"
       id="rect2299" />
    <rect
       x="59.113505"
       y="410.09994"
       width="483.2529"
       height="155.91187"
       id="rect2293" />
    <style
       type="text/css"
       id="style46">  .fil0 {fill:#191027} .fil2 {fill:#211F39} .fil8 {fill:#3C1434} .fil7 {fill:#661C37} .fil6 {fill:#841D3A} .fil4 {fill:#A52237} .fil9 {fill:#AEAD93} .fil3 {fill:#B62844} .fil10 {fill:#C93246} .fil1 {fill:#E3CB9A} .fil5 {fill:#F2873C}  </style>
    <clipPath
       clipPathUnits="userSpaceOnUse"
       id="clipPath212">
      <path
         d="M 0,720 H 720 V 0 H 0 Z"
         id="path210" />
    </clipPath>
    <clipPath
       clipPathUnits="userSpaceOnUse"
       id="clipPath212-7">
      <path
         d="M 0,720 H 720 V 0 H 0 Z"
         id="path210-7" />
    </clipPath>
  </defs>
  <g
     id="Layer_x0020_1"
     inkscape:label="Android"
     style="display:inline"
     inkscape:groupmode="layer">
    <metadata
       id="CorelCorpID_0Corel-Layer" />
    <path
       class="fil0"
       d="M 0,3242.52 V 5496.9 h 4427 v -449.4 l -1310.25,-455.69 223.92,311.91 c -6.01,-0.89 -401.91,-375.9 -446.22,-416.73 -151.88,-139.92 -314.9,-266.6 -474.19,-390.5 -166.71,-129.67 -313.13,-248.49 -495.27,-369.37 -88.1,-58.48 -171.7543,-109.2798 -260.12,-172.2 -85.38,-51.36 -205.85,-99.72 -281.03,-150.46 l 27.68,-72.89 -439.38,-291.9 c -113.21,-49 -163.83,-39.64 -285.1,-50.96 -97.35,-9.09 -180.14,-64.13 -278.86,-9.09 -80.76,45.03 -99.14,128.61 -173.95,162.66 -18.36,8.36 -233.07,100.18 -234.24,100.24 z"
       id="path51"
       sodipodi:nodetypes="cccccccccccccccccc" />
    <path
       class="fil1"
       d="m 1016.43,2997.72 108.33,-119.38 6.84,12.22 554.36,424.02 12.87,-0.73 c -137.68,-98.08 -270.08,-211.52 -409.21,-312.08 -27.56,-19.92 -195.97,-144.17 -193.76,-166.77 3.16,-32.27 112.63,21.2 127.73,30.73 72.08,45.45 55.19,57.05 81.26,-17.78 60.37,-173.31 129.42,-374.14 168.96,-553.39 25.3,-114.69 129.88,-507.64 117.4,-601.04 -0.83,-0.95 -86.36,-35.36 -104.06,-47.96 -29.48,-20.97 -59.07,-41.39 -86.12,-65.52 -86.54,-77.2 -8.81,-207.55 -18.43,-242.27 l -83.46,-60.43 6,-7.84 c 280.81,216.31 435.6,335.1 667.35,522.12 l 6.73,-8.09 c -99.48,-84.63 -256.87,-208.4 -407.32,-323.75 -54.08,-41.47 -111.77,-93.24 -166.4,-131.57 -26.02,-18.26 0.16,-81.23 7.87,-110.43 24.4,-92.39 -2.59,-51.06 67.24,-79.39 l 341.02,289.96 15.54,-20.61 c -37.38,-10.41 -264.96,-223.37 -334.19,-260.75 -27.96,-15.09 -57.05,-17.43 -64.4,-22.27 l -16.46,-12.84 281.01,-332.78 c 8.99,-21.46 163.89,-106.92 195.32,-120.31 77.45,-32.99 153.97,-59.99 237.14,-78.16 99.22,-21.68 185.9,-28.76 287.03,-20.88 40.04,3.12 237.78,35.44 259.13,54.98 267.03,81.24 466.12,247.52 604.89,488.35 66.56,115.52 119.59,288.4 124.76,421.47 1.72,44.22 0.93,88.08 3.67,132.56 4.07,66.17 24.03,41.26 -24.45,94.7 -44.31,48.85 -91.24,91.79 -135.83,138.48 72.29,174.72 139.72,152.45 -53.49,254.84 -114.09,60.46 24.54,69.65 -33.15,138.48 -23.27,27.76 -40.26,19.13 -59.38,55 -8.74,16.38 -64.34,33.56 -68.28,46.51 l -2.37,4 71.88,42.5 c 15.42,76.26 -88.13,120.56 -95.1,136.3 -25.06,56.6 92.85,92.07 -8.47,147.43 -49.99,34.68 -37.37,38.24 -104.48,12.23 -35.01,-13.56 -69.45,-31.39 -104.21,-46.13 -38.24,-16.22 -173.59,-76.92 -199.89,-99.12 l -85.39,102.1 33.08,69.02 -18.16,52.41 -20.91,47.61 30.52,20.2 -2.37,-14.65 -118.13,25.32 -28.09,169.39 444.66,377.82 c 12.94,-2.55 162.07,-94.89 186.93,-109.6 47.07,-27.84 39.09,-17.47 84.99,22.02 26.69,22.97 53.29,46.04 79.98,69 105.89,91.07 211.36,187.63 317.82,276.79 217.06,181.79 440.64,351.43 657.71,530.86 l 3.87,-4.17 -1034.91,-959.47 51.36,-41.35 c 8.91,-11.34 103.5,-78.54 129.48,-99.56 60.25,-48.74 113.46,-105.99 166.82,-160.38 93.48,-95.29 206.51,-262.97 269.6,-384.88 168.1,-324.84 247.18,-717.85 201.13,-1081.83 C 3904.34,1145.14 3781.16,827.95 3574.4,554.62 3361.27,272.88 3138.08,144.9 2822.31,0.01 h -1229.1 c -1,1.27 -184.4,79.89 -207.02,91.81 C 1321.98,125.68 1259.12,162 1198.81,202.45 1080.6,281.75 976.37,372.7 877.91,477.53 673.5,695.17 535.2,967.2 464.72,1256.17 c -83.38,341.87 -50.56,703.93 71.78,1030.23 78.28,208.79 184.17,392.12 336.37,557.38 36.8,39.96 117.32,114.7 143.54,153.95 z"
       id="path53" />
    <path
       class="fil2"
       d="m 2388.4,3053.71 c -7.82,2.22 -70.64,289.58 -78.18,322.04 -12.39,53.33 -27.48,111 -38.91,163.45 -11.3,51.87 40.17,75.17 78.28,105.12 146.66,115.29 289.84,243.4 432.53,364.44 117.47,99.64 825.91,664.27 853.98,738.12 l 7.65,-9.18 -1382.29,-1152.18 -6.44,6.91 c -3.2,4.91 -25.76,58.11 -25.16,60.87 l -110.78,-69.71 c 1.45,4.7 133.02,89.19 150.5,100.96 102.23,68.84 315.5,269.12 394.23,357.31 83.79,93.86 160.64,164.27 238.76,262.77 34.2,43.12 191.66,268.51 214.17,287.17 l 1310.25,455.69 V 0 h -1604.7 c 315.78,144.89 538.96,272.87 752.09,554.61 206.76,273.32 329.93,590.52 373.44,934.36 46.05,363.98 -33.03,756.99 -201.13,1081.83 -63.09,121.91 -176.12,289.59 -269.6,384.88 -53.36,54.39 -106.57,111.64 -166.82,160.38 -25.98,21.01 -173.87,131.67 -182.78,143.01 l 1.94,-2.1 1034.91,959.47 -3.87,4.17 c -217.07,-179.43 -440.66,-349.07 -657.71,-530.86 -106.46,-89.17 -211.93,-185.72 -317.82,-276.79 -26.69,-22.96 -53.29,-46.03 -79.98,-69 -45.9,-39.49 -37.92,-49.86 -84.99,-22.02 -24.86,14.7 -173.99,107.05 -186.93,109.6 l -444.66,-377.82 z"
       id="path55" />
    <path
       class="fil2"
       d="m 0,3242.52 c 1.17,-0.06 215.88,-91.88 234.24,-100.24 74.8,-34.05 93.19,-117.63 173.95,-162.66 98.73,-55.04 181.51,0 278.86,9.09 121.28,11.32 171.9,1.96 285.1,50.96 l 44.27,-41.94 C 990.2,2958.48 909.68,2883.74 872.88,2843.78 720.67,2678.51 614.79,2495.19 536.51,2286.4 414.17,1960.1 381.36,1598.04 464.73,1256.17 535.21,967.2 673.51,695.18 877.92,477.53 976.37,372.7 1080.61,281.75 1198.82,202.45 1259.12,162 1321.99,125.68 1386.2,91.82 1408.82,79.89 1592.21,1.27 1593.22,0.01 H 0.01 v 3242.52 z"
       id="path57" />
    <path
       class="fil0"
       d="m 1698.83,3313.84 160.07,104.22 c -1.23,-12.89 -2.22,-10.64 1.4,-15.16 l 51.23,12.47 2.86,-4.61 17.59,11.07 c -44.7,-132.67 -243.35,-113.46 -252.67,-137.34 l 0.93,-5.28 180.8,31.88 0.38,6.98 -5.02,-9.59 3.58,-3.2 99.17,69.17 3.13,-4.47 -664.48,-467.33 1.88,-2.66 513.39,348.04 92.22,-559.93 0.83,2.25 392.18,288.26 36.81,-152.3 3.27,-1.16 78.1,59.19 118.13,-25.32 2.37,14.65 -30.52,-20.2 -305,-310.08 c 32.46,6.68 120.25,1.62 161.92,4.23 112.37,7.03 63.4,-35.26 116.15,-52.33 l 118.31,87.04 c 26.31,22.2 161.66,82.9 199.89,99.12 34.76,14.74 69.2,32.57 104.21,46.13 67.11,26 54.49,22.45 104.48,-12.23 l -348.74,-244.3 0.19,-15.32 203.23,-6.72 1.18,17.42 -17.04,-42.69 129.94,87.89 -268.32,-207.1 28.83,30.66 c -15.22,-5.84 -50.65,-52.99 -59.15,-68.59 -16.59,-30.44 0.08,-82.37 -2.46,-116.7 -4.25,-57.42 -78.66,-99.85 -121.7,-135.59 -45.81,-38.05 -95.83,-76.47 -143.01,-113.71 -31.39,-24.78 -116.62,-101.54 -139.59,-116.12 -44.18,21.22 -16.42,74.48 -141.51,71.45 -29.13,-0.7 -144.07,-45.42 -149.15,-66.94 l 7.79,-8.19 c 11.06,-0.03 10.78,14.92 22.98,17.48 11.91,2.49 11.53,8.29 28.67,14.38 24.48,8.69 38.9,18.16 66.55,23.91 19.47,4.05 157.22,2.37 129.76,-42.05 -5.41,-0.58 -30.35,30.56 -101.44,27.13 -42.1,-2.03 -67.43,-14.59 -98.23,-36.37 -63.93,-45.22 -45.79,-147.52 -43.09,-211.98 -76.71,11.98 -32.19,-2.82 9.99,-17.38 4.03,5.25 3.12,2.24 2.22,14.6 l 15,-6.39 -44.97,-27.57 -130.76,-102.49 c -6.85,6.85 -7.81,18.82 -10.45,27.98 l 3.41,-4.89 133.56,97.9 -8.48,11.56 c -12.19,7.87 -118.86,-20.28 -140.56,-24.82 -22.47,-4.7 -25.53,14.18 -60.5,-19.36 -39.24,-37.63 -9.81,-51.86 -7.41,-57.45 l 80.42,34.57 -0.03,-13.18 -4,5.71 -76.02,-37.91 0.16,-10.69 67.93,-15.12 -341.02,-289.96 c -69.83,28.33 -42.84,-13 -67.24,79.39 -7.71,29.21 -33.89,92.18 -7.87,110.43 54.63,38.33 112.32,90.11 166.4,131.57 150.45,115.35 307.84,239.12 407.32,323.75 l -6.73,8.09 c -231.75,-187.02 -386.54,-305.81 -667.35,-522.12 l -6,7.84 83.46,60.43 c 9.62,34.72 -68.11,165.07 18.43,242.27 27.06,24.13 56.64,44.55 86.12,65.52 17.71,12.6 103.24,47 104.06,47.96 12.48,93.4 -92.1,486.35 -117.4,601.04 -39.54,179.25 -108.58,380.08 -168.96,553.39 -26.07,74.84 -9.19,63.24 -81.26,17.78 -15.1,-9.52 -124.58,-63 -127.73,-30.73 -2.21,22.6 166.2,146.85 193.76,166.77 139.13,100.56 271.52,214 409.21,312.08 z"
       id="path59" />
    <path
       class="fil0"
       d="m 2114.85,1447.47 c 7.15,-11.27 103.31,-77.11 121.64,-90.26 48.7,-34.97 20.88,-20.65 -28.25,-20.88 -35.04,-0.16 -70.07,1 -105.14,0.85 -106.34,-0.46 -240.05,-33.25 -277.42,-144.59 -39.1,-116.52 66.74,-205.85 165.71,-240.08 55.87,-19.32 368.99,-33.73 386.62,-8.11 l -155.47,106.98 -2.07,-3.01 c 12.78,5.16 210.66,-24.12 318.65,24.09 75.21,33.57 163.09,125.47 136.95,218.74 -25.28,90.19 -124.86,137.01 -209.45,152.58 -67.81,12.48 -278.79,10.18 -351.76,3.69 z m -411.72,-668.38 -281.01,332.78 16.46,12.84 c 7.35,4.84 36.44,7.18 64.4,22.27 69.23,37.38 296.81,250.34 334.19,260.75 l 27.25,-13.54 c 18.38,9.64 -5.35,16.05 45.91,15.71 20.82,-0.14 34.33,3.37 34.44,26.53 0.22,51.38 -13.07,42.66 27.07,85.44 l 75.88,40.37 4.75,-6.65 -4.16,-10.09 c 59.21,-46.03 142.86,-41.07 193.73,16.95 83.74,95.5 6.82,180.76 9.08,198.55 11.23,9.04 19.01,3.2 27.73,10.65 5.31,4.54 9.59,14.65 17.42,21.23 42.34,35.59 86.11,70.51 130.17,103.97 59.38,45.09 115.62,92.9 175.37,137.23 135.69,100.67 62.06,97.99 86.73,220.57 7.7,38.29 130.84,121.87 166.85,145.52 l 62.65,-450.69 -357.33,-260.2 c -150.21,20.39 -58.74,139.39 -69.79,247.02 -42.74,1.99 -44.19,-158.07 -46.25,-191.81 -4.9,-80.23 79.11,-83.68 141.44,-95.94 95.91,-18.87 299.47,-36.7 341.01,-138.27 51.91,-126.93 26.03,-270.76 -42.44,-384.27 -51.33,-85.1 -156.18,-185.47 -242.64,-234.37 -85.36,-39.39 -135.94,-78.05 -232.65,-105.63 -198.14,-56.51 -394.83,-58.5 -593.19,-3.52 -33.15,9.19 -93.23,30.76 -120.65,48.61 -18.02,11.73 -5.45,-8.13 -24.74,12.16 -3.31,3.48 -67.73,51.53 -74.57,45.39 l -3.1,-3.22 110,-106.33 z"
       id="path61" />
    <path
       class="fil3"
       d="m 2298.31,2978.59 -112.63,461.43 -3.05,-0.66 12.69,-65.52 -36.62,17.37 -6.97,-1.27 -40.28,68.75 4.64,7.11 -15.96,5.03 -32.47,-111.88 7.16,-2.62 -13.22,62.21 -248.51,-170.52 -513.39,-348.04 -1.88,2.66 664.48,467.33 -3.13,4.47 -99.17,-69.17 -3.58,3.2 5.02,9.59 -0.38,-6.98 -180.8,-31.88 -0.93,5.28 c 9.32,23.88 207.97,4.67 252.67,137.34 l -17.59,-11.07 -2.86,4.61 -51.23,-12.47 c -3.62,4.52 -2.63,2.28 -1.4,15.16 l -160.07,-104.22 -12.87,0.73 -274.42,16.98 -27.68,72.89 c 75.18,50.74 195.66,99.1 281.03,150.46 89.65,53.93 172.01,113.72 260.12,172.2 182.13,120.89 328.56,239.7 495.27,369.37 159.29,123.9 322.31,250.57 474.19,390.5 44.31,40.82 440.21,415.84 446.22,416.73 l -223.92,-311.91 c -22.51,-18.65 -179.97,-244.05 -214.17,-287.17 -78.12,-98.5 -154.98,-168.91 -238.76,-262.77 -78.73,-88.19 -292,-288.47 -394.23,-357.31 -17.48,-11.77 -149.05,-96.26 -150.5,-100.96 l 110.78,69.71 c -0.6,-2.76 21.96,-55.96 25.16,-60.87 l 6.44,-6.91 1382.29,1152.18 -7.65,9.18 c -28.07,-73.85 -736.51,-638.49 -853.98,-738.12 -142.69,-121.03 -285.86,-249.15 -432.53,-364.44 -38.11,-29.96 -89.58,-53.26 -78.28,-105.12 11.43,-52.45 26.52,-110.12 38.91,-163.45 7.54,-32.46 70.36,-319.82 78.18,-322.04 l 28.09,-169.39 -78.1,-59.19 -3.27,1.16 -36.81,152.3 z"
       id="path63" />
    <path
       class="fil4"
       d="m 2642.03,891.63 c 86.46,48.9 191.32,149.27 242.64,234.37 68.47,113.52 94.35,257.35 42.44,384.27 -41.54,101.57 -245.1,119.4 -341.01,138.27 -62.33,12.26 -146.33,15.71 -141.44,95.94 2.06,33.74 3.5,193.8 46.25,191.81 11.06,-107.62 -80.42,-226.63 69.79,-247.02 l 133.36,-24.12 181.94,-39.16 c 15.26,-3.3 71.22,-49.2 83.42,-61.98 33.39,-34.95 23.92,-72.57 36.04,-110.01 l 10.18,-14.63 385.16,268 -7.74,15.7 -173.84,151.22 97.19,194.18 -3.53,1.72 c -4.14,6.5 -84.13,50.04 -94.83,56.15 -58.06,33.16 -65.56,11.49 -67.34,81.84 l -133.15,-29.3 2.41,-262.84 -91.95,33.43 -62.65,450.69 119.81,111.43 -129.94,-87.89 17.04,42.69 -1.18,-17.42 -203.23,6.72 -0.19,15.32 348.74,244.3 c 101.31,-55.36 -16.59,-90.83 8.47,-147.43 6.97,-15.74 110.52,-60.04 95.1,-136.3 l -71.88,-42.5 2.37,-4 c 3.94,-12.95 59.54,-30.13 68.28,-46.51 19.13,-35.87 36.12,-27.25 59.38,-55 57.69,-68.83 -80.95,-78.02 33.15,-138.48 193.21,-102.39 125.77,-80.12 53.49,-254.84 44.59,-46.68 91.53,-89.63 135.83,-138.48 48.47,-53.44 28.52,-28.53 24.45,-94.7 -2.74,-44.48 -1.95,-88.33 -3.67,-132.56 -5.16,-133.07 -58.19,-305.95 -124.76,-421.47 -138.77,-240.83 -337.86,-407.12 -604.89,-488.35 33.57,77 163.06,344.38 -39.72,276.93 z"
       id="path65" />
    <path
       class="fil5"
       d="m 2114.85,1447.47 c 72.97,6.49 283.95,8.78 351.76,-3.69 84.59,-15.57 184.17,-62.38 209.45,-152.58 26.14,-93.27 -61.74,-185.17 -136.95,-218.74 -107.99,-48.21 -305.87,-18.93 -318.65,-24.09 l 2.07,3.01 L 2378,944.4 c -17.63,-25.62 -330.76,-11.22 -386.62,8.11 -98.96,34.23 -204.81,123.57 -165.71,240.08 37.37,111.34 171.08,144.13 277.42,144.59 35.07,0.15 70.11,-1.01 105.14,-0.85 49.13,0.23 76.95,-14.09 28.25,20.88 -18.32,13.15 -114.49,78.99 -121.64,90.26 z"
       id="path67" />
    <polygon
       class="fil6"
       points="2074.81,3356.33 2067.66,3358.95 2100.13,3470.83 2116.09,3465.8 2111.45,3458.7 2151.72,3389.95 2158.7,3391.22 2195.32,3373.85 2182.63,3439.37 2185.68,3440.03 2298.31,2978.59 1906.14,2690.34 1905.31,2688.09 1813.09,3248.02 2061.6,3418.54 "
       id="polygon69" />
    <path
       class="fil7"
       d="m 1703.13,779.09 -110,106.33 3.1,3.22 c 6.84,6.15 71.26,-41.9 74.57,-45.39 19.28,-20.28 6.72,-0.43 24.74,-12.16 27.42,-17.85 87.49,-39.42 120.65,-48.61 198.36,-54.98 395.05,-52.99 593.19,3.52 96.7,27.58 147.29,66.24 232.65,105.63 239.49,88.56 40.56,-270.28 39.72,-276.93 -21.35,-19.53 -219.09,-51.86 -259.13,-54.98 -101.13,-7.88 -187.8,-0.79 -287.03,20.88 -83.17,18.17 -159.69,45.17 -237.14,78.16 -31.44,13.39 -186.33,98.85 -195.32,120.31 z"
       id="path71" />
    <path
       class="fil7"
       d="m 2876,1625.99 -181.94,39.16 -133.36,24.12 357.33,260.2 91.95,-33.43 -2.41,262.84 133.15,29.3 c 1.77,-70.35 9.27,-48.68 67.34,-81.84 10.7,-6.11 90.69,-49.65 94.83,-56.15 l 3.53,-1.72 -97.19,-194.18 -91.81,2.58 -5.31,-13.37 177.08,-143.85 c -4.79,-0.47 -210.83,-120.66 -233.54,-133.75 -2.54,6.34 -20.13,29.37 -25.29,36.6 l 1.71,-3.93 216.42,100.94 c -1.36,5 -9.2,25.33 -13.35,25.5 l -217.07,-73.86 -15.62,20.65 93.1,76.27 c -1.6,5.26 -8.47,17.16 -12.98,20.31 -19.28,-14.79 -192.62,-148.89 -196.86,-150.44 l -21.25,14.86 11.54,-26.83 z"
       id="path73" />
    <polygon
       class="fil8"
       points="1411.54,3331.56 1685.96,3314.58 1131.6,2890.55 1124.76,2878.34 1016.43,2997.72 972.16,3039.66 "
       id="polygon75" />
    <path
       class="fil9"
       d="m 1971.84,1521.87 2.51,14.65 44.97,27.57 -15,6.39 c 0.9,-12.36 1.81,-9.35 -2.22,-14.6 l -51.4,17.74 1.6,5.85 39.8,-6.21 c -2.7,64.46 -20.84,166.76 43.09,211.98 30.8,21.78 56.13,34.34 98.23,36.37 71.09,3.43 96.03,-27.71 101.44,-27.13 27.47,44.42 -110.28,46.1 -129.76,42.05 -27.65,-5.75 -42.06,-15.22 -66.55,-23.91 -10.05,-3.57 -51.45,-31.86 -51.65,-31.86 l -7.79,8.19 c 5.08,21.51 120.02,66.23 149.15,66.94 125.09,3.03 97.32,-50.24 141.51,-71.45 22.98,14.58 108.2,91.35 139.59,116.12 47.18,37.24 97.2,75.66 143.01,113.71 43.04,35.74 117.45,78.17 121.7,135.59 2.54,34.33 -14.13,86.25 2.46,116.7 8.5,15.6 43.93,62.75 59.15,68.59 l -28.83,-30.66 268.32,207.1 -119.81,-111.43 c -36.01,-23.65 -159.15,-107.23 -166.85,-145.52 -24.67,-122.58 48.97,-119.9 -86.73,-220.57 -59.75,-44.33 -115.99,-92.14 -175.37,-137.23 -44.06,-33.45 -87.82,-68.38 -130.17,-103.97 -7.83,-6.58 -12.11,-16.69 -17.42,-21.23 -8.72,-7.44 -16.5,-1.61 -27.73,-10.65 -2.27,-17.79 74.66,-103.05 -9.08,-198.55 -50.87,-58.02 -134.52,-62.99 -193.73,-16.95 l 4.16,10.09 -4.75,6.65 -75.88,-40.37 z"
       id="path77" />
    <path
       class="fil2"
       d="m 2876,1625.99 -11.54,26.83 21.25,-14.86 c 4.24,1.55 177.57,135.64 196.86,150.44 4.51,-3.15 11.38,-15.05 12.98,-20.31 l -93.1,-76.27 15.62,-20.65 217.07,73.86 c 4.15,-0.17 11.98,-20.5 13.35,-25.5 l -216.42,-100.94 -1.71,3.93 c 5.16,-7.23 22.75,-30.26 25.29,-36.6 22.71,13.09 228.75,133.28 233.54,133.75 l -177.08,143.85 5.31,13.37 91.81,-2.58 173.84,-151.22 7.74,-15.7 -385.16,-268 -10.18,14.63 c -12.12,37.44 -2.65,75.06 -36.04,110.01 -12.21,12.78 -68.16,58.68 -83.42,61.98 z"
       id="path79" />
    <path
       class="fil6"
       d="m 2506.47,2853.44 43.32,-98.65 -4.26,-1.36 -33.08,-69.02 85.39,-102.1 -118.31,-87.04 c -52.75,17.07 -3.79,59.35 -116.15,52.33 -41.66,-2.61 -129.45,2.45 -161.92,-4.23 l 305,310.08 z"
       id="path81" />
    <path
       class="fil10"
       d="m 1837.17,1407.73 -15.54,20.61 -67.93,15.12 -0.16,10.69 76.02,37.91 4,-5.71 0.03,13.18 -80.42,-34.57 c -2.4,5.59 -31.83,19.82 7.41,57.45 34.97,33.54 38.03,14.66 60.5,19.36 21.69,4.54 128.37,32.69 140.56,24.82 l 8.48,-11.56 -133.56,-97.9 -3.41,4.89 c 2.63,-9.16 3.59,-21.13 10.45,-27.98 l 130.76,102.49 -2.51,-14.65 c -40.14,-42.77 -26.84,-34.05 -27.07,-85.44 -0.1,-23.17 -13.62,-26.67 -34.44,-26.53 -51.26,0.34 -27.53,-6.07 -45.91,-15.71 l -27.25,13.54 z"
       id="path83" />
    <text
       xml:space="preserve"
       transform="scale(6.9524286)"
       id="text2291"
       style="white-space:pre;shape-inside:url(#rect2293);display:inline;fill:#ac2858;fill-opacity:1;stroke:#e9e9e8;stroke-width:15" />
    <path
       style="opacity:0.955836;fill:none;fill-opacity:1;stroke:#191027;stroke-width:13.1384;stroke-dasharray:none;stroke-opacity:1"
       d="m 1370.3695,3417.5757 c 0,0 330.4466,164.7501 387.8647,202.9225 75.5907,50.254 449.2304,305.8963 479.0513,335.2076 30.2699,29.7527 1104.5153,955.5341 1104.5153,955.5341"
       id="path5163"
       sodipodi:nodetypes="cssc" />
    <text
       xml:space="preserve"
       style="font-size:83.4291px;text-align:center;text-anchor:middle;opacity:0.955836;fill:none;fill-opacity:1;stroke:#191027;stroke-width:13.1384;stroke-dasharray:none;stroke-opacity:1"
       x="1169.699"
       y="3632.6057"
       id="text5657"><tspan
         sodipodi:role="line"
         id="tspan5655"
         style="stroke-width:13.1384"></tspan></text>
    <g
       aria-label="BUT I SURE AM, 
BIG MONKEY BRAIN MAKE COMPUPU DO STUFFS!"
       transform="matrix(11.451144,8.2462956,-8.2462956,11.451144,7096.0175,-7039.3168)"
       id="text4436"
       style="white-space:pre;shape-inside:url(#rect4438);opacity:0.955836;fill:#b62844;stroke:#ffffff;stroke-width:15.0009;stroke-opacity:0">
      <path
         d="m 129.14673,840.2841 h 2.448 q 1.596,0 2.424,0.48 0.828,0.48 0.828,1.644 0,0.756 -0.42,1.26 -0.42,0.492 -1.212,0.636 v 0.06 q 0.54,0.096 0.972,0.324 0.444,0.228 0.696,0.648 0.252,0.42 0.252,1.08 0,1.164 -0.804,1.8 -0.792,0.636 -2.172,0.636 h -3.012 z m 1.08,3.648 h 1.584 q 1.092,0 1.5,-0.348 0.42,-0.36 0.42,-1.056 0,-0.708 -0.504,-1.008 -0.492,-0.312 -1.584,-0.312 h -1.416 z m 0,0.9 v 3.108 h 1.728 q 1.14,0 1.584,-0.444 0.444,-0.444 0.444,-1.164 0,-0.672 -0.468,-1.08 -0.456,-0.42 -1.644,-0.42 z"
         style="text-align:center;text-anchor:middle"
         id="path5009" />
      <path
         d="m 143.46273,840.2841 v 5.544 q 0,0.888 -0.36,1.608 -0.36,0.708 -1.104,1.128 -0.744,0.408 -1.872,0.408 -1.608,0 -2.436,-0.864 -0.828,-0.876 -0.828,-2.304 v -5.52 h 1.08 v 5.556 q 0,1.044 0.552,1.62 0.564,0.576 1.692,0.576 1.164,0 1.68,-0.612 0.528,-0.624 0.528,-1.596 v -5.544 z"
         style="text-align:center;text-anchor:middle"
         id="path5011" />
      <path
         d="m 148.43074,848.8521 h -1.08 v -7.62 h -2.676 v -0.948 h 6.42 v 0.948 h -2.664 z"
         style="text-align:center;text-anchor:middle"
         id="path5013" />
      <path
         d="m 157.92274,848.8521 h -3.096 v -0.624 l 1.008,-0.228 v -6.852 l -1.008,-0.24 v -0.624 h 3.096 v 0.624 l -1.008,0.24 v 6.852 l 1.008,0.228 z"
         style="text-align:center;text-anchor:middle"
         id="path5015" />
      <path
         d="m 167.55875,846.5601 q 0,1.14 -0.828,1.776 -0.828,0.636 -2.232,0.636 -0.72,0 -1.332,-0.108 -0.612,-0.108 -1.02,-0.3 v -1.032 q 0.432,0.192 1.068,0.348 0.648,0.156 1.332,0.156 0.948,0 1.44,-0.372 0.492,-0.372 0.492,-1.008 0,-0.42 -0.18,-0.708 -0.18,-0.288 -0.624,-0.528 -0.444,-0.24 -1.212,-0.528 -1.104,-0.396 -1.656,-0.972 -0.552,-0.576 -0.552,-1.572 0,-0.672 0.348,-1.164 0.348,-0.492 0.96,-0.756 0.612,-0.264 1.428,-0.264 0.696,0 1.284,0.132 0.588,0.132 1.08,0.348 l -0.336,0.924 q -0.444,-0.192 -0.972,-0.324 -0.528,-0.132 -1.08,-0.132 -0.804,0 -1.212,0.348 -0.408,0.336 -0.408,0.9 0,0.432 0.18,0.72 0.18,0.288 0.588,0.528 0.408,0.228 1.104,0.48 0.756,0.276 1.272,0.6 0.528,0.312 0.792,0.756 0.276,0.444 0.276,1.116 z"
         style="text-align:center;text-anchor:middle"
         id="path5017" />
      <path
         d="m 175.80275,840.2841 v 5.544 q 0,0.888 -0.36,1.608 -0.36,0.708 -1.104,1.128 -0.744,0.408 -1.872,0.408 -1.608,0 -2.436,-0.864 -0.828,-0.876 -0.828,-2.304 v -5.52 h 1.08 v 5.556 q 0,1.044 0.552,1.62 0.564,0.576 1.692,0.576 1.164,0 1.68,-0.612 0.528,-0.624 0.528,-1.596 v -5.544 z"
         style="text-align:center;text-anchor:middle"
         id="path5019" />
      <path
         d="m 180.42276,840.2841 q 1.596,0 2.352,0.612 0.768,0.6 0.768,1.824 0,0.684 -0.252,1.14 -0.252,0.456 -0.648,0.732 -0.384,0.276 -0.816,0.42 l 2.352,3.84 h -1.26 l -2.076,-3.54 h -1.704 v 3.54 h -1.08 v -8.568 z m -0.06,0.936 h -1.224 v 3.18 h 1.284 q 1.044,0 1.524,-0.408 0.48,-0.42 0.48,-1.224 0,-0.84 -0.504,-1.188 -0.504,-0.36 -1.56,-0.36 z"
         style="text-align:center;text-anchor:middle"
         id="path5021" />
      <path
         d="m 190.31076,848.8521 h -4.788 v -8.568 h 4.788 v 0.948 h -3.708 v 2.676 h 3.492 v 0.936 h -3.492 v 3.06 h 3.708 z"
         style="text-align:center;text-anchor:middle"
         id="path5023" />
      <path
         d="m 200.69076,848.8521 -1.032,-2.652 h -3.396 l -1.02,2.652 h -1.092 l 3.348,-8.604 h 0.972 l 3.336,8.604 z m -1.356,-3.612 -0.96,-2.592 q -0.036,-0.096 -0.12,-0.348 -0.084,-0.252 -0.168,-0.516 -0.072,-0.276 -0.12,-0.42 -0.096,0.372 -0.204,0.732 -0.096,0.348 -0.168,0.552 l -0.972,2.592 z"
         style="text-align:center;text-anchor:middle"
         id="path5025" />
      <path
         d="m 206.76276,848.8521 -2.82,-7.512 h -0.048 q 0.036,0.372 0.06,1.008 0.024,0.624 0.024,1.308 v 5.196 h -0.996 v -8.568 h 1.596 l 2.64,7.02 h 0.048 l 2.688,-7.02 h 1.584 v 8.568 h -1.068 v -5.268 q 0,-0.624 0.024,-1.236 0.036,-0.612 0.06,-0.996 h -0.048 l -2.856,7.5 z"
         style="text-align:center;text-anchor:middle"
         id="path5027" />
      <path
         d="m 214.92275,847.4601 0.084,0.132 q -0.168,0.636 -0.456,1.392 -0.288,0.768 -0.576,1.416 h -0.78 q 0.168,-0.684 0.336,-1.5 0.18,-0.816 0.264,-1.44 z"
         style="text-align:center;text-anchor:middle"
         id="path5029" />
      <path
         d="m 34.442755,855.2841 h 2.448 q 1.596,0 2.424,0.48 0.828,0.48 0.828,1.644 0,0.756 -0.42,1.26 -0.42,0.492 -1.212,0.636 v 0.06 q 0.54,0.096 0.972,0.324 0.444,0.228 0.696,0.648 0.252,0.42 0.252,1.08 0,1.164 -0.804,1.8 -0.792,0.636 -2.172,0.636 h -3.012 z m 1.08,3.648 h 1.584 q 1.092,0 1.5,-0.348 0.42,-0.36 0.42,-1.056 0,-0.708 -0.504,-1.008 -0.492,-0.312 -1.584,-0.312 h -1.416 z m 0,0.9 v 3.108 h 1.728 q 1.14,0 1.584,-0.444 0.444,-0.444 0.444,-1.164 0,-0.672 -0.468,-1.08 -0.456,-0.42 -1.644,-0.42 z"
         style="text-align:center;text-anchor:middle"
         id="path5031" />
      <path
         d="m 44.654751,863.8521 h -3.096 v -0.624 l 1.008,-0.228 v -6.852 l -1.008,-0.24 v -0.624 h 3.096 v 0.624 l -1.008,0.24 v 6.852 l 1.008,0.228 z"
         style="text-align:center;text-anchor:middle"
         id="path5033" />
      <path
         d="m 50.030759,859.3281 h 2.964 v 4.2 q -0.696,0.228 -1.404,0.336 -0.708,0.108 -1.608,0.108 -1.332,0 -2.244,-0.528 -0.912,-0.54 -1.392,-1.524 -0.468,-0.996 -0.468,-2.352 0,-1.332 0.516,-2.316 0.528,-0.996 1.524,-1.536 0.996,-0.552 2.4,-0.552 0.72,0 1.356,0.132 0.648,0.132 1.2,0.372 l -0.408,0.936 q -0.456,-0.192 -1.032,-0.336 -0.564,-0.156 -1.176,-0.156 -1.536,0 -2.4,0.936 -0.852,0.924 -0.852,2.52 0,1.02 0.324,1.812 0.336,0.78 1.044,1.224 0.708,0.432 1.86,0.432 0.564,0 0.96,-0.06 0.396,-0.06 0.72,-0.144 v -2.544 h -1.884 z"
         style="text-align:center;text-anchor:middle"
         id="path5035" />
      <path
         d="m 61.946769,863.8521 -2.82,-7.512 h -0.048 q 0.036,0.372 0.06,1.008 0.024,0.624 0.024,1.308 v 5.196 h -0.996 v -8.568 h 1.596 l 2.64,7.02 h 0.048 l 2.688,-7.02 h 1.584 v 8.568 h -1.068 v -5.268 q 0,-0.624 0.024,-1.236 0.036,-0.612 0.06,-0.996 h -0.048 l -2.856,7.5 z"
         style="text-align:center;text-anchor:middle"
         id="path5037" />
      <path
         d="m 76.526765,859.5561 q 0,1.332 -0.456,2.328 -0.444,0.984 -1.332,1.536 -0.876,0.552 -2.16,0.552 -1.332,0 -2.22,-0.552 -0.876,-0.552 -1.308,-1.548 -0.432,-0.996 -0.432,-2.328 0,-1.308 0.432,-2.292 0.432,-0.996 1.308,-1.548 0.888,-0.552 2.232,-0.552 1.284,0 2.16,0.552 0.876,0.54 1.32,1.536 0.456,0.984 0.456,2.316 z m -6.768,0 q 0,1.62 0.684,2.556 0.684,0.924 2.136,0.924 1.452,0 2.124,-0.924 0.684,-0.936 0.684,-2.556 0,-1.62 -0.672,-2.532 -0.672,-0.924 -2.124,-0.924 -1.464,0 -2.148,0.924 -0.684,0.912 -0.684,2.532 z"
         style="text-align:center;text-anchor:middle"
         id="path5039" />
      <path
         d="m 85.214766,863.8521 h -1.26 l -4.584,-7.116 h -0.048 q 0.024,0.42 0.06,1.044 0.036,0.624 0.036,1.284 v 4.788 h -0.996 v -8.568 h 1.248 l 4.572,7.092 h 0.048 q -0.012,-0.192 -0.036,-0.576 -0.012,-0.384 -0.036,-0.828 -0.012,-0.456 -0.012,-0.852 v -4.836 h 1.008 z"
         style="text-align:center;text-anchor:middle"
         id="path5041" />
      <path
         d="m 93.806769,863.8521 h -1.272 l -3.036,-4.092 -0.876,0.768 v 3.324 h -1.08 v -8.568 h 1.08 v 4.224 q 0.36,-0.408 0.732,-0.816 0.372,-0.408 0.744,-0.816 l 2.316,-2.592 h 1.26 l -3.396,3.732 z"
         style="text-align:center;text-anchor:middle"
         id="path5043" />
      <path
         d="m 99.758763,863.8521 h -4.788 v -8.568 h 4.788 v 0.948 h -3.708 v 2.676 h 3.492 v 0.936 h -3.492 v 3.06 h 3.708 z"
         style="text-align:center;text-anchor:middle"
         id="path5045" />
      <path
         d="m 103.87476,859.4961 2.232,-4.212 h 1.164 l -2.856,5.244 v 3.324 h -1.08 v -3.276 l -2.856,-5.292 h 1.176 z"
         style="text-align:center;text-anchor:middle"
         id="path5047" />
      <path
         d="m 111.55476,855.2841 h 2.448 q 1.596,0 2.424,0.48 0.828,0.48 0.828,1.644 0,0.756 -0.42,1.26 -0.42,0.492 -1.212,0.636 v 0.06 q 0.54,0.096 0.972,0.324 0.444,0.228 0.696,0.648 0.252,0.42 0.252,1.08 0,1.164 -0.804,1.8 -0.792,0.636 -2.172,0.636 h -3.012 z m 1.08,3.648 h 1.584 q 1.092,0 1.5,-0.348 0.42,-0.36 0.42,-1.056 0,-0.708 -0.504,-1.008 -0.492,-0.312 -1.584,-0.312 h -1.416 z m 0,0.9 v 3.108 h 1.728 q 1.14,0 1.584,-0.444 0.444,-0.444 0.444,-1.164 0,-0.672 -0.468,-1.08 -0.456,-0.42 -1.644,-0.42 z"
         style="text-align:center;text-anchor:middle"
         id="path5049" />
      <path
         d="m 121.71876,855.2841 q 1.596,0 2.352,0.612 0.768,0.6 0.768,1.824 0,0.684 -0.252,1.14 -0.252,0.456 -0.648,0.732 -0.384,0.276 -0.816,0.42 l 2.352,3.84 h -1.26 l -2.076,-3.54 h -1.704 v 3.54 h -1.08 v -8.568 z m -0.06,0.936 h -1.224 v 3.18 h 1.284 q 1.044,0 1.524,-0.408 0.48,-0.42 0.48,-1.224 0,-0.84 -0.504,-1.188 -0.504,-0.36 -1.56,-0.36 z"
         style="text-align:center;text-anchor:middle"
         id="path5051" />
      <path
         d="m 132.19475,863.8521 -1.032,-2.652 h -3.396 l -1.02,2.652 h -1.092 l 3.348,-8.604 h 0.972 l 3.336,8.604 z m -1.356,-3.612 -0.96,-2.592 q -0.036,-0.096 -0.12,-0.348 -0.084,-0.252 -0.168,-0.516 -0.072,-0.276 -0.12,-0.42 -0.096,0.372 -0.204,0.732 -0.096,0.348 -0.168,0.552 l -0.972,2.592 z"
         style="text-align:center;text-anchor:middle"
         id="path5053" />
      <path
         d="m 136.89875,863.8521 h -3.096 v -0.624 l 1.008,-0.228 v -6.852 l -1.008,-0.24 v -0.624 h 3.096 v 0.624 l -1.008,0.24 v 6.852 l 1.008,0.228 z"
         style="text-align:center;text-anchor:middle"
         id="path5055" />
      <path
         d="m 145.34676,863.8521 h -1.26 l -4.584,-7.116 h -0.048 q 0.024,0.42 0.06,1.044 0.036,0.624 0.036,1.284 v 4.788 h -0.996 v -8.568 h 1.248 l 4.572,7.092 h 0.048 q -0.012,-0.192 -0.036,-0.576 -0.012,-0.384 -0.036,-0.828 -0.012,-0.456 -0.012,-0.852 v -4.836 h 1.008 z"
         style="text-align:center;text-anchor:middle"
         id="path5057" />
      <path
         d="m 154.57477,863.8521 -2.82,-7.512 h -0.048 q 0.036,0.372 0.06,1.008 0.024,0.624 0.024,1.308 v 5.196 h -0.996 v -8.568 h 1.596 l 2.64,7.02 h 0.048 l 2.688,-7.02 h 1.584 v 8.568 h -1.068 v -5.268 q 0,-0.624 0.024,-1.236 0.036,-0.612 0.06,-0.996 h -0.048 l -2.856,7.5 z"
         style="text-align:center;text-anchor:middle"
         id="path5059" />
      <path
         d="m 167.05476,863.8521 -1.032,-2.652 h -3.396 l -1.02,2.652 h -1.092 l 3.348,-8.604 h 0.972 l 3.336,8.604 z m -1.356,-3.612 -0.96,-2.592 q -0.036,-0.096 -0.12,-0.348 -0.084,-0.252 -0.168,-0.516 -0.072,-0.276 -0.12,-0.42 -0.096,0.372 -0.204,0.732 -0.096,0.348 -0.168,0.552 l -0.972,2.592 z"
         style="text-align:center;text-anchor:middle"
         id="path5061" />
      <path
         d="m 175.61076,863.8521 h -1.272 l -3.036,-4.092 -0.876,0.768 v 3.324 h -1.08 v -8.568 h 1.08 v 4.224 q 0.36,-0.408 0.732,-0.816 0.372,-0.408 0.744,-0.816 l 2.316,-2.592 h 1.26 l -3.396,3.732 z"
         style="text-align:center;text-anchor:middle"
         id="path5063" />
      <path
         d="m 181.56276,863.8521 h -4.788 v -8.568 h 4.788 v 0.948 h -3.708 v 2.676 h 3.492 v 0.936 h -3.492 v 3.06 h 3.708 z"
         style="text-align:center;text-anchor:middle"
         id="path5065" />
      <path
         d="m 190.23875,856.1121 q -1.38,0 -2.172,0.924 -0.792,0.924 -0.792,2.532 0,1.596 0.732,2.532 0.744,0.924 2.22,0.924 0.552,0 1.056,-0.096 0.504,-0.096 0.996,-0.24 v 0.936 q -0.48,0.18 -0.996,0.264 -0.504,0.084 -1.212,0.084 -1.308,0 -2.184,-0.54 -0.876,-0.54 -1.32,-1.536 -0.432,-0.996 -0.432,-2.34 0,-1.296 0.468,-2.28 0.48,-0.996 1.404,-1.548 0.924,-0.564 2.244,-0.564 1.356,0 2.364,0.504 l -0.432,0.912 q -0.396,-0.18 -0.888,-0.324 -0.48,-0.144 -1.056,-0.144 z"
         style="text-align:center;text-anchor:middle"
         id="path5067" />
      <path
         d="m 201.38674,859.5561 q 0,1.332 -0.456,2.328 -0.444,0.984 -1.332,1.536 -0.876,0.552 -2.16,0.552 -1.332,0 -2.22,-0.552 -0.876,-0.552 -1.308,-1.548 -0.432,-0.996 -0.432,-2.328 0,-1.308 0.432,-2.292 0.432,-0.996 1.308,-1.548 0.888,-0.552 2.232,-0.552 1.284,0 2.16,0.552 0.876,0.54 1.32,1.536 0.456,0.984 0.456,2.316 z m -6.768,0 q 0,1.62 0.684,2.556 0.684,0.924 2.136,0.924 1.452,0 2.124,-0.924 0.684,-0.936 0.684,-2.556 0,-1.62 -0.672,-2.532 -0.672,-0.924 -2.124,-0.924 -1.464,0 -2.148,0.924 -0.684,0.912 -0.684,2.532 z"
         style="text-align:center;text-anchor:middle"
         id="path5069" />
      <path
         d="m 207.06275,863.8521 -2.82,-7.512 h -0.048 q 0.036,0.372 0.06,1.008 0.024,0.624 0.024,1.308 v 5.196 h -0.996 v -8.568 h 1.596 l 2.64,7.02 h 0.048 l 2.688,-7.02 h 1.584 v 8.568 h -1.068 v -5.268 q 0,-0.624 0.024,-1.236 0.036,-0.612 0.06,-0.996 h -0.048 l -2.856,7.5 z"
         style="text-align:center;text-anchor:middle"
         id="path5071" />
      <path
         d="m 216.43475,855.2841 q 1.68,0 2.448,0.66 0.768,0.66 0.768,1.86 0,0.708 -0.324,1.332 -0.312,0.612 -1.068,0.996 -0.744,0.384 -2.028,0.384 h -0.984 v 3.336 h -1.08 v -8.568 z m -0.096,0.924 h -1.092 v 3.384 h 0.864 q 1.224,0 1.824,-0.396 0.6,-0.396 0.6,-1.344 0,-0.828 -0.54,-1.236 -0.528,-0.408 -1.656,-0.408 z"
         style="text-align:center;text-anchor:middle"
         id="path5073" />
      <path
         d="m 227.94273,855.2841 v 5.544 q 0,0.888 -0.36,1.608 -0.36,0.708 -1.104,1.128 -0.744,0.408 -1.872,0.408 -1.608,0 -2.436,-0.864 -0.828,-0.876 -0.828,-2.304 v -5.52 h 1.08 v 5.556 q 0,1.044 0.552,1.62 0.564,0.576 1.692,0.576 1.164,0 1.68,-0.612 0.528,-0.624 0.528,-1.596 v -5.544 z"
         style="text-align:center;text-anchor:middle"
         id="path5075" />
      <path
         d="m 232.46675,855.2841 q 1.68,0 2.448,0.66 0.768,0.66 0.768,1.86 0,0.708 -0.324,1.332 -0.312,0.612 -1.068,0.996 -0.744,0.384 -2.028,0.384 h -0.984 v 3.336 h -1.08 v -8.568 z m -0.096,0.924 h -1.092 v 3.384 h 0.864 q 1.224,0 1.824,-0.396 0.6,-0.396 0.6,-1.344 0,-0.828 -0.54,-1.236 -0.528,-0.408 -1.656,-0.408 z"
         style="text-align:center;text-anchor:middle"
         id="path5077" />
      <path
         d="m 243.97475,855.2841 v 5.544 q 0,0.888 -0.36,1.608 -0.36,0.708 -1.104,1.128 -0.744,0.408 -1.872,0.408 -1.608,0 -2.436,-0.864 -0.828,-0.876 -0.828,-2.304 v -5.52 h 1.08 v 5.556 q 0,1.044 0.552,1.62 0.564,0.576 1.692,0.576 1.164,0 1.68,-0.612 0.528,-0.624 0.528,-1.596 v -5.544 z"
         style="text-align:center;text-anchor:middle"
         id="path5079" />
      <path
         d="m 256.21476,859.4841 q 0,2.172 -1.188,3.276 -1.176,1.092 -3.288,1.092 h -2.388 v -8.568 h 2.64 q 1.284,0 2.232,0.48 0.96,0.48 1.476,1.416 0.516,0.936 0.516,2.304 z m -1.14,0.036 q 0,-1.716 -0.852,-2.508 -0.84,-0.804 -2.388,-0.804 h -1.404 v 6.72 h 1.164 q 3.48,0 3.48,-3.408 z"
         style="text-align:center;text-anchor:middle"
         id="path5081" />
      <path
         d="m 265.58675,859.5561 q 0,1.332 -0.456,2.328 -0.444,0.984 -1.332,1.536 -0.876,0.552 -2.16,0.552 -1.332,0 -2.22,-0.552 -0.876,-0.552 -1.308,-1.548 -0.432,-0.996 -0.432,-2.328 0,-1.308 0.432,-2.292 0.432,-0.996 1.308,-1.548 0.888,-0.552 2.232,-0.552 1.284,0 2.16,0.552 0.876,0.54 1.32,1.536 0.456,0.984 0.456,2.316 z m -6.768,0 q 0,1.62 0.684,2.556 0.684,0.924 2.136,0.924 1.452,0 2.124,-0.924 0.684,-0.936 0.684,-2.556 0,-1.62 -0.672,-2.532 -0.672,-0.924 -2.124,-0.924 -1.464,0 -2.148,0.924 -0.684,0.912 -0.684,2.532 z"
         style="text-align:center;text-anchor:middle"
         id="path5083" />
      <path
         d="m 275.46276,861.5601 q 0,1.14 -0.828,1.776 -0.828,0.636 -2.232,0.636 -0.72,0 -1.332,-0.108 -0.612,-0.108 -1.02,-0.3 v -1.032 q 0.432,0.192 1.068,0.348 0.648,0.156 1.332,0.156 0.948,0 1.44,-0.372 0.492,-0.372 0.492,-1.008 0,-0.42 -0.18,-0.708 -0.18,-0.288 -0.624,-0.528 -0.444,-0.24 -1.212,-0.528 -1.104,-0.396 -1.656,-0.972 -0.552,-0.576 -0.552,-1.572 0,-0.672 0.348,-1.164 0.348,-0.492 0.96,-0.756 0.612,-0.264 1.428,-0.264 0.696,0 1.284,0.132 0.588,0.132 1.08,0.348 l -0.336,0.924 q -0.444,-0.192 -0.972,-0.324 -0.528,-0.132 -1.08,-0.132 -0.804,0 -1.212,0.348 -0.408,0.336 -0.408,0.9 0,0.432 0.18,0.72 0.18,0.288 0.588,0.528 0.408,0.228 1.104,0.48 0.756,0.276 1.272,0.6 0.528,0.312 0.792,0.756 0.276,0.444 0.276,1.116 z"
         style="text-align:center;text-anchor:middle"
         id="path5085" />
      <path
         d="m 279.90276,863.8521 h -1.08 v -7.62 h -2.676 v -0.948 h 6.42 v 0.948 h -2.664 z"
         style="text-align:center;text-anchor:middle"
         id="path5087" />
      <path
         d="m 290.37875,855.2841 v 5.544 q 0,0.888 -0.36,1.608 -0.36,0.708 -1.104,1.128 -0.744,0.408 -1.872,0.408 -1.608,0 -2.436,-0.864 -0.828,-0.876 -0.828,-2.304 v -5.52 h 1.08 v 5.556 q 0,1.044 0.552,1.62 0.564,0.576 1.692,0.576 1.164,0 1.68,-0.612 0.528,-0.624 0.528,-1.596 v -5.544 z"
         style="text-align:center;text-anchor:middle"
         id="path5089" />
      <path
         d="m 293.71477,863.8521 h -1.08 v -8.568 h 4.788 v 0.948 h -3.708 v 3.036 h 3.48 v 0.948 h -3.48 z"
         style="text-align:center;text-anchor:middle"
         id="path5091" />
      <path
         d="m 299.94274,863.8521 h -1.08 v -8.568 h 4.788 v 0.948 h -3.708 v 3.036 h 3.48 v 0.948 h -3.48 z"
         style="text-align:center;text-anchor:middle"
         id="path5093" />
      <path
         d="m 309.95073,861.5601 q 0,1.14 -0.828,1.776 -0.828,0.636 -2.232,0.636 -0.72,0 -1.332,-0.108 -0.612,-0.108 -1.02,-0.3 v -1.032 q 0.432,0.192 1.068,0.348 0.648,0.156 1.332,0.156 0.948,0 1.44,-0.372 0.492,-0.372 0.492,-1.008 0,-0.42 -0.18,-0.708 -0.18,-0.288 -0.624,-0.528 -0.444,-0.24 -1.212,-0.528 -1.104,-0.396 -1.656,-0.972 -0.552,-0.576 -0.552,-1.572 0,-0.672 0.348,-1.164 0.348,-0.492 0.96,-0.756 0.612,-0.264 1.428,-0.264 0.696,0 1.284,0.132 0.588,0.132 1.08,0.348 l -0.336,0.924 q -0.444,-0.192 -0.972,-0.324 -0.528,-0.132 -1.08,-0.132 -0.804,0 -1.212,0.348 -0.408,0.336 -0.408,0.9 0,0.432 0.18,0.72 0.18,0.288 0.588,0.528 0.408,0.228 1.104,0.48 0.756,0.276 1.272,0.6 0.528,0.312 0.792,0.756 0.276,0.444 0.276,1.116 z"
         style="text-align:center;text-anchor:middle"
         id="path5095" />
      <path
         d="m 312.47075,861.4401 h -0.684 l -0.3,-6.156 h 1.284 z m -1.092,1.764 q 0,-0.444 0.216,-0.624 0.216,-0.18 0.528,-0.18 0.3,0 0.516,0.18 0.228,0.18 0.228,0.624 0,0.432 -0.228,0.624 -0.216,0.192 -0.516,0.192 -0.312,0 -0.528,-0.192 -0.216,-0.192 -0.216,-0.624 z"
         style="text-align:center;text-anchor:middle"
         id="path5097" />
    </g>
  </g>
  <g
     inkscape:groupmode="layer"
     id="layer1"
     inkscape:label="Atom">
    <g
       id="g206"
       transform="matrix(4.526351,0,0,-4.526351,604.56657,2810.0823)">
      <g
         id="g208"
         clip-path="url(#clipPath212-7)">
        <g
           id="g214"
           transform="translate(490.3579,310.1113)">
          <path
             d="M 0,0 C -7.645,15.809 -17.959,32.666 -30.636,49.889 -17.959,67.111 -7.645,83.969 -0.001,99.778 34.298,87.065 55.616,69.4 55.616,49.889 55.616,30.377 34.299,12.712 0,0 m 1.145,-81.614 c -13.797,-13.797 -41.361,-11.215 -74.603,4.049 5.773,16.584 10.4,35.798 13.614,56.94 21.142,3.214 40.356,7.841 56.939,13.614 15.265,-33.242 17.847,-60.807 4.05,-74.603 m -131.503,-54.471 c -19.511,0 -37.177,21.317 -49.889,55.616 15.809,7.645 32.667,17.959 49.889,30.636 17.223,-12.677 34.081,-22.991 49.889,-30.636 -12.712,-34.299 -30.377,-55.616 -49.889,-55.616 m -131.503,54.471 c -13.797,13.796 -11.215,41.361 4.049,74.603 16.584,-5.773 35.798,-10.4 56.94,-13.614 3.214,-21.143 7.841,-40.356 13.614,-56.94 -33.242,-15.264 -60.806,-17.846 -74.603,-4.049 m -54.471,131.503 c 0,19.511 21.318,37.177 55.617,49.889 7.644,-15.809 17.958,-32.667 30.635,-49.889 C -242.757,32.666 -253.071,15.808 -260.716,0 c -34.299,12.712 -55.616,30.377 -55.616,49.889 m 54.471,131.503 c 13.797,13.797 41.362,11.215 74.603,-4.05 -5.773,-16.583 -10.4,-35.797 -13.614,-56.939 -21.142,-3.215 -40.356,-7.841 -56.94,-13.614 -15.264,33.241 -17.846,60.806 -4.049,74.603 m 131.503,54.47 c 19.512,0 37.177,-21.317 49.889,-55.616 -15.809,-7.644 -32.667,-17.959 -49.889,-30.635 -17.222,12.677 -34.08,22.991 -49.889,30.635 12.712,34.299 30.378,55.616 49.889,55.616 M -55.666,80.827 c -0.719,11.654 -1.84,22.922 -3.324,33.727 19.859,-3.121 37.994,-7.495 53.679,-12.869 -7.29,-14.892 -17.021,-30.808 -28.857,-47.056 -6.591,8.689 -13.765,17.449 -21.498,26.198 m 0.471,-52.771 c 0.308,7.158 0.48,14.433 0.48,21.832 0,7.399 -0.172,14.675 -0.48,21.833 6.238,-7.29 12.074,-14.586 17.515,-21.832 -5.441,-7.246 -11.277,-14.542 -17.515,-21.833 m -0.471,-9.105 c 7.733,8.748 14.907,17.509 21.498,26.198 11.836,-16.249 21.567,-32.165 28.857,-47.056 -15.685,-5.375 -33.82,-9.749 -53.679,-12.869 1.484,10.804 2.605,22.072 3.324,33.727 m -36.981,-37.648 c 5.278,4.843 10.545,9.866 15.776,15.097 5.232,5.232 10.255,10.499 15.099,15.778 -0.744,-9.565 -1.776,-18.852 -3.053,-27.823 -8.971,-1.276 -18.257,-2.308 -27.822,-3.052 m -6.773,-6.106 c 11.655,0.718 22.923,1.839 33.727,3.324 -3.12,-19.86 -7.494,-37.995 -12.869,-53.679 -14.891,7.29 -30.807,17.02 -47.056,28.857 8.689,6.59 17.45,13.765 26.198,21.498 m -52.77,-0.472 c 7.158,-0.307 14.433,-0.479 21.832,-0.479 7.399,0 14.674,0.172 21.832,0.48 -7.29,-6.238 -14.586,-12.075 -21.832,-17.515 -7.246,5.44 -14.542,11.277 -21.832,17.514 m -9.106,0.472 c 8.749,-7.733 17.509,-14.908 26.199,-21.498 -16.249,-11.837 -32.166,-21.567 -47.057,-28.857 -5.375,15.684 -9.749,33.819 -12.869,53.679 10.804,-1.485 22.072,-2.606 33.727,-3.324 m -37.648,36.981 c 4.844,-5.279 9.866,-10.545 15.098,-15.777 5.232,-5.232 10.498,-10.254 15.778,-15.099 -9.566,0.745 -18.852,1.777 -27.823,3.053 -1.277,8.971 -2.308,18.257 -3.053,27.823 m -6.106,6.773 c 0.719,-11.655 1.84,-22.923 3.324,-33.728 -19.859,3.121 -37.995,7.495 -53.679,12.869 7.29,14.892 17.021,30.808 28.857,47.057 6.59,-8.689 13.765,-17.45 21.498,-26.198 m -0.471,52.77 c -0.307,-7.158 -0.48,-14.434 -0.48,-21.833 0,-7.399 0.173,-14.674 0.48,-21.832 -6.238,7.291 -12.074,14.587 -17.515,21.833 5.441,7.245 11.278,14.541 17.515,21.832 m 0.471,9.106 c -7.733,-8.748 -14.908,-17.509 -21.498,-26.199 -11.837,16.249 -21.567,32.166 -28.857,47.057 15.684,5.375 33.82,9.749 53.679,12.869 -1.484,-10.804 -2.605,-22.073 -3.324,-33.727 m 36.982,37.648 c -5.28,-4.844 -10.546,-9.867 -15.778,-15.099 -5.232,-5.232 -10.254,-10.498 -15.098,-15.776 0.745,9.565 1.777,18.851 3.053,27.822 8.971,1.276 18.257,2.308 27.823,3.053 m 6.772,6.105 c -11.655,-0.718 -22.923,-1.839 -33.727,-3.323 3.12,19.859 7.494,37.994 12.869,53.679 14.891,-7.29 30.808,-17.021 47.056,-28.857 -8.689,-6.591 -17.449,-13.766 -26.198,-21.499 m 52.77,0.472 c -7.158,0.307 -14.433,0.48 -21.832,0.48 -7.399,0 -14.674,-0.173 -21.832,-0.48 7.29,6.237 14.586,12.074 21.832,17.514 7.246,-5.44 14.542,-11.277 21.832,-17.514 m 9.107,-0.472 c -8.749,7.733 -17.51,14.908 -26.199,21.499 16.249,11.836 32.165,21.566 47.056,28.856 5.375,-15.684 9.749,-33.819 12.869,-53.678 -10.804,1.484 -22.072,2.605 -33.726,3.323 m 22.548,-21.203 c -5.231,5.231 -10.498,10.254 -15.776,15.098 9.565,-0.745 18.851,-1.777 27.822,-3.053 1.277,-8.971 2.308,-18.257 3.053,-27.823 -4.844,5.279 -9.867,10.546 -15.099,15.778 m 16.549,-53.489 c 0,-9.747 -0.287,-19.318 -0.834,-28.663 -6.222,-6.996 -12.787,-13.967 -19.68,-20.86 -6.892,-6.892 -13.862,-13.456 -20.858,-19.678 -9.346,-0.547 -18.918,-0.834 -28.664,-0.834 -9.747,0 -19.318,0.287 -28.664,0.834 -6.996,6.222 -13.967,12.787 -20.859,19.679 -6.892,6.892 -13.457,13.863 -19.679,20.859 -0.547,9.345 -0.834,18.916 -0.834,28.663 0,9.747 0.287,19.318 0.834,28.665 6.222,6.995 12.787,13.966 19.679,20.858 6.892,6.892 13.863,13.457 20.859,19.679 9.346,0.547 18.917,0.834 28.664,0.834 9.747,0 19.318,-0.287 28.665,-0.834 6.995,-6.221 13.966,-12.786 20.857,-19.678 6.893,-6.892 13.458,-13.863 19.68,-20.859 0.547,-9.347 0.834,-18.918 0.834,-28.665 M 1.145,181.392 c 13.797,-13.797 11.215,-41.362 -4.049,-74.603 -16.584,5.773 -35.798,10.399 -56.94,13.614 -3.214,21.142 -7.841,40.355 -13.614,56.939 33.241,15.264 60.806,17.847 74.603,4.05 M 61.223,49.889 c 0,21.877 -22.424,41.293 -58.842,54.983 16.071,35.431 18.198,65.016 2.729,80.485 -15.469,15.469 -45.054,13.343 -80.486,-2.729 -13.69,36.418 -33.106,58.841 -54.982,58.841 -21.877,0 -41.293,-22.423 -54.983,-58.841 -35.431,16.071 -65.016,18.198 -80.485,2.729 -15.469,-15.469 -13.342,-45.054 2.729,-80.485 -36.418,-13.69 -58.842,-33.106 -58.842,-54.983 0,-21.877 22.424,-41.293 58.842,-54.983 -16.072,-35.431 -18.198,-65.016 -2.729,-80.486 15.469,-15.468 45.054,-13.342 80.485,2.729 13.69,-36.418 33.106,-58.841 54.983,-58.841 21.876,0 41.293,22.424 54.983,58.842 35.431,-16.072 65.016,-18.198 80.485,-2.73 15.469,15.47 13.343,45.055 -2.728,80.486 36.418,13.69 58.841,33.106 58.841,54.983"
             style="fill:#ac2858;fill-opacity:1;fill-rule:nonzero;stroke:none"
             id="path216" />
        </g>
        <g
           id="g218"
           transform="translate(398.4268,358.9227)">
          <path
             d="m 0,0 c 0,-21.678 -17.573,-39.251 -39.251,-39.251 -21.677,0 -39.25,17.573 -39.25,39.251 0,21.678 17.573,39.251 39.25,39.251 C -17.573,39.251 0,21.678 0,0"
             style="fill:#ac2858;fill-opacity:1;fill-rule:nonzero;stroke:none"
             id="path220" />
        </g>
        <g
           id="g222"
           transform="translate(402.1648,479.4786)">
          <path
             d="m 0,0 c 0,-4.129 -3.347,-7.476 -7.476,-7.476 -4.129,0 -7.477,3.347 -7.477,7.476 0,4.129 3.348,7.476 7.477,7.476 C -3.347,7.476 0,4.129 0,0"
             style="fill:#f2873c;fill-opacity:1;fill-rule:nonzero;stroke:none"
             id="path224" />
        </g>
        <g
           id="g226"
           transform="translate(284.3568,500.5257)">
          <path
             d="m 0,0 c 0,-3.582 -2.904,-6.486 -6.486,-6.486 -3.582,0 -6.486,2.904 -6.486,6.486 0,3.582 2.904,6.486 6.486,6.486 C -2.904,6.486 0,3.582 0,0"
             style="fill:#f2873c;fill-opacity:1;fill-rule:nonzero;stroke:none"
             id="path228" />
        </g>
        <g
           id="g230"
           transform="translate(253.1054,385.0901)">
          <path
             d="m 0,0 c 0,-3.097 -2.51,-5.607 -5.607,-5.607 -3.097,0 -5.608,2.51 -5.608,5.607 0,3.097 2.511,5.607 5.608,5.607 C -2.51,5.607 0,3.097 0,0"
             style="fill:#f2873c;fill-opacity:1;fill-rule:nonzero;stroke:none"
             id="path232" />
        </g>
        <g
           id="g234"
           transform="translate(508.6686,276.6831)">
          <path
             d="m 0,0 c 0,-4.497 -3.646,-8.143 -8.143,-8.143 -4.497,0 -8.143,3.646 -8.143,8.143 0,4.497 3.646,8.143 8.143,8.143 C -3.646,8.143 0,4.497 0,0"
             style="fill:#f2873c;fill-opacity:1;fill-rule:nonzero;stroke:none"
             id="path236" />
        </g>
        <g
           id="g238"
           transform="translate(229.2746,229.956)">
          <path
             d="m 0,0 c 0,-3.355 -2.72,-6.074 -6.074,-6.074 -3.355,0 -6.075,2.719 -6.075,6.074 0,3.355 2.72,6.075 6.075,6.075 C -2.72,6.075 0,3.355 0,0"
             style="fill:#f2873c;fill-opacity:1;fill-rule:nonzero;stroke:none"
             id="path240" />
        </g>
        <g
           id="g242"
           transform="translate(353.1014,255.1886)">
          <path
             d="m 0,0 c 0,-3.613 -2.929,-6.542 -6.542,-6.542 -3.613,0 -6.542,2.929 -6.542,6.542 0,3.613 2.929,6.542 6.542,6.542 C -2.929,6.542 0,3.613 0,0"
             style="fill:#f2873c;fill-opacity:1;fill-rule:nonzero;stroke:none"
             id="path244" />
        </g>
        <g
           id="g246"
           transform="translate(483.4699,390.6973)">
          <path
             d="m 0,0 c 0,-3.097 -2.51,-5.607 -5.607,-5.607 -3.097,0 -5.607,2.51 -5.607,5.607 0,3.097 2.51,5.607 5.607,5.607 C -2.51,5.607 0,3.097 0,0"
             style="fill:#f2873c;fill-opacity:1;fill-rule:nonzero;stroke:none"
             id="path248" />
        </g>
        <g
           id="g250"
           transform="translate(209.1821,319.672)">
          <path
             d="m 0,0 c 0,-2.839 -2.301,-5.14 -5.14,-5.14 -2.839,0 -5.14,2.301 -5.14,5.14 0,2.839 2.301,5.14 5.14,5.14 C -2.301,5.14 0,2.839 0,0"
             style="fill:#f2873c;fill-opacity:1;fill-rule:nonzero;stroke:none"
             id="path252" />
        </g>
        <g
           id="g254"
           transform="translate(418.9866,410.3227)">
          <path
             d="m 0,0 c 0,-3.613 -2.929,-6.542 -6.542,-6.542 -3.613,0 -6.542,2.929 -6.542,6.542 0,3.613 2.929,6.542 6.542,6.542 C -2.929,6.542 0,3.613 0,0"
             style="fill:#f2873c;fill-opacity:1;fill-rule:nonzero;stroke:none"
             id="path256" />
        </g>
      </g>
    </g>
  </g>
</svg>
